# xmcd
#
# Track frame offsets: 
#        150
#        11677
#        23587
#        34297
#        48410
#        58412
#        72065
#        85985
#        98925
#        112507
#        126820
#        135832
#        153112
#        169805
#        183177
#        190762
#        207845
#        220682
#        233172
#        246517
#
# Disc length: 3431 seconds
#
# Revision: 2
# Processed by: cddbd v1.5.2PL0 Copyright (c) Steve Scherf et al.
# Submitted via: ExactAudioCopyFreeDBPlugin 1.0
#
DISCID=050d6514
DTITLE=Boogie Kings - Swamp Boogie Blues
DYEAR=1900
DGENRE=Blues
TTITLE0=Boil the Crawfish
TTITLE1=I'm Not A Fool Anymore
TTITLE2=CA Fait Chaud
TTITLE3=Mathilda
TTITLE4=Promised Land
TTITLE5=Red, Red Wine
TTITLE6=I Got Loaded
TTITLE7=Sweet Dreams
TTITLE8=Kidnapper
TTITLE9=Eight Nights A Week
TTITLE10=Opelousas Sostan
TTITLE11=Cherry Pie
TTITLE12=Hey Baby
TTITLE13=This Should Go On Forever
TTITLE14=Cajun Twist
TTITLE15=Don't Take It So Hard
TTITLE16=Madame Rene
TTITLE17=It's Rainin'
TTITLE18=No More Troubles
TTITLE19=I'm Leavin' It All Up To You
EXTD=ID3G:   0
EXTT0=
EXTT1=
EXTT2=
EXTT3=
EXTT4=
EXTT5=
EXTT6=
EXTT7=
EXTT8=
EXTT9=
EXTT10=
EXTT11=
EXTT12=
EXTT13=
EXTT14=
EXTT15=
EXTT16=
EXTT17=
EXTT18=
EXTT19=
PLAYORDER=
